<svg width="33" height="33" viewBox="0 0 33 33" fill="none" xmlns="http://www.w3.org/2000/svg">
<path d="M27.1555 12.9532L17.1555 22.9532C17.0626 23.0462 16.9523 23.12 16.8309 23.1703C16.7095 23.2206 16.5794 23.2465 16.448 23.2465C16.3166 23.2465 16.1865 23.2206 16.0651 23.1703C15.9437 23.12 15.8334 23.0462 15.7405 22.9532L5.7405 12.9532C5.55286 12.7656 5.44744 12.5111 5.44744 12.2457C5.44744 11.9804 5.55286 11.7259 5.7405 11.5382C5.92814 11.3506 6.18263 11.2452 6.448 11.2452C6.71336 11.2452 6.96786 11.3506 7.1555 11.5382L16.448 20.832L25.7405 11.5382C25.8334 11.4453 25.9437 11.3716 26.0651 11.3213C26.1865 11.271 26.3166 11.2452 26.448 11.2452C26.5794 11.2452 26.7095 11.271 26.8309 11.3213C26.9523 11.3716 27.0626 11.4453 27.1555 11.5382C27.2484 11.6311 27.3221 11.7414 27.3724 11.8628C27.4227 11.9842 27.4486 12.1143 27.4486 12.2457C27.4486 12.3771 27.4227 12.5072 27.3724 12.6286C27.3221 12.75 27.2484 12.8603 27.1555 12.9532Z" fill="#333"/>
</svg>
